# xmcd
#
# Track frame offsets: 
#        150
#        12538
#        24144
#        36723
#        50724
#        63208
#        76187
#        88819
#        103138
#        114140
#        128197
#        141467
#
# Disc length: 2075 seconds
#
# Revision: 0
# Processed by: cddbd v1.5.2PL0 Copyright (c) Steve Scherf et al.
# Submitted via: ExactAudioCopyFreeDBPlugin 1.0
#
DISCID=a208190c
DTITLE=Ray Charles - The Originals
DYEAR=2007
DGENRE=Blues
TTITLE0=Rockin' Chair Blues
TTITLE1=How Long Blues
TTITLE2=Blues Before Sunrise
TTITLE3=Blues is My Middle Name
TTITLE4=Mr. Charles Blues
TTITLE5=Ray's Blues
TTITLE6=Feelin' Sad
TTITLE7=Losing Hand
TTITLE8=Sentimental Blues
TTITLE9=The Midnight Hour
TTITLE10=Alone in the City
TTITLE11=Someday
EXTD=
EXTT0=
EXTT1=
EXTT2=
EXTT3=
EXTT4=
EXTT5=
EXTT6=
EXTT7=
EXTT8=
EXTT9=
EXTT10=
EXTT11=
PLAYORDER=
